<svg width="19" height="17" viewBox="0 0 19 17" fill="none" xmlns="http://www.w3.org/2000/svg">
<path d="M7.49902 8.33333H10.8324M7.49902 5H10.8324M10.8324 15.8333V13.3333C10.8324 12.4135 10.0855 11.6667 9.16569 11.6667C8.24583 11.6667 7.49902 12.4135 7.49902 13.3333V15.8333" stroke="#0B0B0C" stroke-width="1.66667" stroke-linecap="round" stroke-linejoin="round"/>
<path d="M4.16634 6.66666H2.49967C1.5792 6.66666 0.833008 7.41286 0.833008 8.33333V14.1667C0.833008 15.0871 1.5792 15.8333 2.49967 15.8333H15.833C16.7535 15.8333 17.4997 15.0871 17.4997 14.1667V5.83333C17.4997 4.91286 16.7535 4.16666 15.833 4.16666H14.1663" stroke="#0B0B0C" stroke-width="1.66667" stroke-linecap="round" stroke-linejoin="round"/>
<path d="M4.16602 15.8333V2.5C4.16602 1.57952 4.91221 0.833332 5.83268 0.833332H12.4993C13.4198 0.833332 14.166 1.57952 14.166 2.5V15.8333" stroke="#0B0B0C" stroke-width="1.66667" stroke-linecap="round" stroke-linejoin="round"/>
</svg>
